<svg xmlns="http://www.w3.org/2000/svg" viewBox="0 0 859.95 530.36"><defs><style>.cls-1{fill:#fcee21;}.cls-2{fill:#d13239;}.cls-3{fill:#fff;}.cls-4{fill:#0055b8;}</style></defs><title> aatcc</title><g id="Layer_2" data-name="Layer 2"><g id="Layer_1-2" data-name="Layer 1"><path d="M860,135.55V394.72a21.2,21.2,0,0,0-3,1.9c-4.36,3.89-8.64,7.86-13,11.79Q779.23,467.17,714.59,526a15.21,15.21,0,0,1-11.22,4.35q-272.61-.15-545.24,0a16.36,16.36,0,0,1-12.2-4.64c-20.19-18.61-40.75-36.82-61.1-55.25-27.08-24.52-54-49.16-81.18-73.63A9.67,9.67,0,0,1,0,388.91Q.14,270.7.07,152.46c0-4.34-.19-8.7.1-13a7.88,7.88,0,0,1,2.13-4.69c4.15-4.1,8.58-7.92,12.9-11.84q66-59.81,132-119.65A14.69,14.69,0,0,0,149.35,0H710.67c2.27,2.26,4.46,4.6,6.82,6.75Q787.32,70.38,857.2,134A14.88,14.88,0,0,0,860,135.55ZM297.25,265.72h0c0,38.73.09,77.45-.1,116.18,0,5.08,1.26,8.54,5.24,12.08q62.83,55.81,125.24,112.14c2.33,2.09,3.63,1.82,5.82-.2,11.51-10.61,23.2-21,34.81-31.52q45.21-40.86,90.49-81.66a11,11,0,0,0,4.13-9.2c-.1-75.22-.3-150.43.22-225.65.08-11.25-3-18.73-11.54-26.29C511.76,96.32,472.66,60.27,433.38,24.42c-2.12-1.93-3.47-2.38-5.82-.23-15.95,14.59-32,29-48.08,43.52-26,23.49-51.92,47.06-78,70.42a11.47,11.47,0,0,0-4.28,9.55C297.3,187,297.25,226.37,297.25,265.72ZM694.56,16.4H446.84c2.88,2.55,5,4.39,7.1,6.29q56.94,51.75,113.83,103.56c2.07,1.88,3.39,2.09,5.55.11,16-14.68,32.16-29.24,48.27-43.84Zm-527.76,0c.15.72.13.88.2.95q60,54.39,120.06,108.83c2.4,2.17,3.75,1.65,5.83-.25q45.33-41.25,90.78-82.37c9.79-8.88,19.63-17.7,30.13-27.16Zm528,497.52c-1.85-1.59-3.05-2.56-4.19-3.59Q632.46,457.6,574.31,404.92c-3.77-3.42-3.69-3.45-7.37-.11q-57.21,52.07-114.45,104.1c-1.59,1.45-3.21,2.87-5.54,5Zm-281,0c-1.86-1.63-3.11-2.72-4.34-3.83q-57.9-52.39-115.8-104.78c-4.18-3.77-3.13-4.5-8.18.09l-117.85,107a12.61,12.61,0,0,0-1.16,1.56ZM229,407.53c-12.13,1.08-16.77-6.15-20.47-15.66-15.64-40.17-31.72-80.17-47.64-120.23-4.44-11.16-5.42-11.73-17.41-10.13-.25,0-.57,0-.73.12-.87.72-2.11,1.33-2.5,2.27-14.34,35.22-28.51,70.51-43,105.69a248.61,248.61,0,0,1-12.06,25.06c-3.08,5.6-7.65,10.46-14.21,11.85-4.31.92-5.49,2.82-4.77,6.72a5.06,5.06,0,0,1,0,1.86c-.65,3.62,1.14,4.38,4.42,4.36,16.42-.11,32.83,0,49.25,0,1.12,0,2.38.26,3.31-.18a3.75,3.75,0,0,0,2-2.44,31.23,31.23,0,0,0-.33-7,3.49,3.49,0,0,0-1.85-2.19c-1-.43-2.2-.22-3.32-.32-11.69-1.06-17.06-8.42-14.13-19.73a87.16,87.16,0,0,1,4.26-12.26,5.07,5.07,0,0,1,3.66-2.62q23.13-.28,46.26,0A4.6,4.6,0,0,1,163.2,375c3,7.74,5.75,15.57,8.5,23.4,1.93,5.5.18,8.23-5.72,8.89-2.69.3-5.43.3-8.64.47a59,59,0,0,1-.36,7c-.64,3.74.89,4.73,4.45,4.7,18.15-.11,36.31,0,54.47,0,3.36,0,6.71,0,10.07,0,1.88,0,3.13-.54,3.07-2.74C229,414,229,411.25,229,407.53Zm-36.19-166h27.61c8.24,0,8.15,0,8.44-8.07.09-2.53-.6-3.52-3.23-3.69-7.69-.52-12.56-4.43-15.46-11.81-16.34-41.63-33-83.14-49.47-124.7-3.67-9.25-3.61-9.27-13.51-9.28-6.07,0-6.1,0-8.39,5.62-12.58,31-25.06,62-37.78,93-4.42,10.75-9,21.48-14.29,31.83-3.84,7.53-9.54,13.62-18.67,15.21a3.26,3.26,0,0,0-1.78,2.62,82.8,82.8,0,0,0,1.21,9.12c0,.13.93.15,1.42.15,17.79,0,35.57,0,53.35.06,2.53,0,3.18-1.15,3.13-3.43-.15-7.59-.11-7.59-7.46-8.9-10.26-1.84-14.78-8.28-12.47-18.43A91.48,91.48,0,0,1,110,197a5,5,0,0,1,3.85-2.36c15-.17,30.09-.06,45.14-.15,2.53,0,3.77.91,4.58,3.3,2.43,7.15,5.11,14.21,7.68,21.32s.49,10.26-7.06,10.8c-7.12.5-7,.51-7.22,7.77-.07,2.82.72,3.91,3.78,3.86C171.44,241.37,182.14,241.48,192.84,241.48ZM770.51,332c0-2.06,0-3.78,0-5.51q-.74-24.91-1.49-49.84c-.17-6-2.61-7.81-8.43-6.08a8,8,0,0,0-3,2c-2.33,2.24-4.64,4.51-6.75,6.95-1.58,1.81-2.89,2.22-5,.74-10.89-7.58-23-10.5-36.27-10.19-27.09.62-48.1,12.06-62.52,34.84-12.89,20.37-15.6,42.81-11.44,66.18,3.33,18.65,12.28,34.25,27.37,45.92,18.86,14.59,40.55,16.88,63,12.36,29-5.83,41.39-25.94,47-52.7a3.19,3.19,0,0,0-1.42-2.74c-3.38-1.06-6.89-1.75-10.51-2.61-.77,3.15-1.3,5.94-2.15,8.63-4.49,14.27-11.46,26.89-25.66,33.58-18.14,8.54-42.21,5-51.73-19.28a96.34,96.34,0,0,1-6.34-32.65c-.3-10.76,0-21.58.72-32.33a77.85,77.85,0,0,1,7.36-28.61c11-23,38.62-23.79,54.14-9.74,10.62,9.62,16.11,22.12,20.17,35.44,2.4,7.89,2.48,7.94,10.8,6.14C769,332.35,769.56,332.2,770.51,332ZM710.68,92.1c-27.19.37-49.1,11.25-63.34,34.54-17,27.87-18.42,57.48-4.83,87.08,8.62,18.8,23.51,31.42,43.83,36.95,12.3,3.36,24.75,3.46,37.28,1.3,13.15-2.26,24.51-7.76,33.43-17.9,7.3-8.31,11.57-18.09,14.34-28.64,2.38-9.05,2.35-8.87-6.51-11.31-3.35-.92-4.21.08-4.85,3.15-2.52,12-7.68,22.66-16.58,31.41-15.53,15.26-50,17.75-61.76-11.92a96.11,96.11,0,0,1-6.49-33,313.94,313.94,0,0,1,.71-32.32c.88-11.8,3.55-23.25,10.16-33.43A32.52,32.52,0,0,1,718,104c14.21,2.14,23.71,10.7,30.13,22.58,4.32,8,7.09,16.81,10.23,25.38,1,2.67,1.94,4.16,5,3.3a9.15,9.15,0,0,1,2.23-.11c5.11-.19,5.15-.19,5-5.32-.49-16.86-1-33.72-1.52-50.57-.18-6.62-2.47-8.32-8.89-6.23a8.74,8.74,0,0,0-3,2.11,63.93,63.93,0,0,0-6,6.13c-2,2.53-3.92,2.36-6.35.65C734.62,94.7,723.11,91.86,710.68,92.1Z"/><path class="cls-1" d="M297.25,265.72c0-39.35.05-78.69-.08-118a11.47,11.47,0,0,1,4.28-9.55c26.11-23.36,52-46.93,78-70.42,16-14.5,32.13-28.93,48.08-43.52,2.35-2.15,3.7-1.7,5.82.23,39.28,35.85,78.38,71.9,118.16,107.18,8.52,7.56,11.62,15,11.54,26.29-.52,75.22-.32,150.43-.22,225.65a11,11,0,0,1-4.13,9.2q-45.39,40.68-90.49,81.66c-11.61,10.49-23.3,20.91-34.81,31.52-2.19,2-3.49,2.29-5.82.2Q365.11,449.92,302.37,394c-4-3.54-5.26-7-5.24-12.08.19-38.73.1-77.45.1-116.18Zm158.93,3.7q0-40,0-80a73.78,73.78,0,0,1,.16-7.44c.46-4.5,2.24-6.68,6.73-7a39.74,39.74,0,0,1,11.41.79c12.53,2.78,20.74,11.28,27.19,21.68,8.1,13.07,12.33,27.54,14.6,42.62.33,2.2,1.18,3,3.3,3,3.23-.06,6.47,0,9.7,0,2.27,0,3-.81,2.7-3.18-.54-4.93-.76-9.89-1-14.85q-1.58-31.22-3.06-62.43c-.11-2.37-.76-3.53-3.51-3.52q-94,.08-188-.06c-3,0-3.85,1-4,3.8-1.27,24.64-2.68,49.28-4,73.93-.34,6.28-.27,6.28,6.28,6.26,8.21,0,8.06-.05,9.68-8.17,3.29-16.59,8.66-32.35,19.55-45.69,7.58-9.28,17.05-15.07,29.53-14.74,7.13.2,9.67,2.61,9.67,9.7q.06,83.22,0,166.42c0,10.4-3.79,14-14.17,14.33-5.1.14-10.2.29-15.3.3-2.54,0-3.56,1-3.42,3.59a60.48,60.48,0,0,1-.07,8.93c-.35,3.55.84,4.65,4.5,4.64,29.6-.14,59.2-.07,88.8,0,7.47,0,14.93-.06,22.39,0,2.77,0,4.17-.72,4-3.79a80.17,80.17,0,0,1,.07-9.68c.16-2.8-.94-3.59-3.69-3.63a177,177,0,0,1-20.09-1c-8.52-1.09-9.86-3.06-9.86-11.76Q456.18,310.93,456.18,269.42Z"/><path d="M456.18,269.42q0,41.5,0,83c0,8.7,1.34,10.67,9.86,11.76a177,177,0,0,0,20.09,1c2.75,0,3.85.83,3.69,3.63a80.17,80.17,0,0,0-.07,9.68c.2,3.07-1.2,3.83-4,3.79-7.46-.11-14.92,0-22.39,0-29.6,0-59.2-.09-88.8,0-3.66,0-4.85-1.09-4.5-4.64a60.48,60.48,0,0,0,.07-8.93c-.14-2.57.88-3.58,3.42-3.59,5.1,0,10.2-.16,15.3-.3,10.38-.28,14.16-3.93,14.17-14.33q.09-83.21,0-166.42c0-7.09-2.54-9.5-9.67-9.7-12.48-.33-21.95,5.46-29.53,14.74-10.89,13.34-16.26,29.1-19.55,45.69-1.62,8.12-1.47,8.15-9.68,8.17-6.55,0-6.62,0-6.28-6.26,1.32-24.65,2.73-49.29,4-73.93.15-2.84,1-3.8,4-3.8q94,.15,188,.06c2.75,0,3.4,1.15,3.51,3.52Q529.4,193.77,531,225c.25,5,.47,9.92,1,14.85.26,2.37-.43,3.22-2.7,3.18-3.23,0-6.47-.08-9.7,0-2.12,0-3-.79-3.3-3-2.27-15.08-6.5-29.55-14.6-42.62-6.45-10.4-14.66-18.9-27.19-21.68a39.74,39.74,0,0,0-11.41-.79c-4.49.35-6.27,2.53-6.73,7a73.78,73.78,0,0,0-.16,7.44Q456.18,229.4,456.18,269.42Z"/><path d="M156.82,358.53h-40l19.89-51.08h.87C143.87,324.23,150.2,341,156.82,358.53Z"/><path d="M137.69,130l19.05,50.41H116.83c6.67-17,13.23-33.84,19.79-50.63Z"/><path class="cls-2" d="M280.58,160.42c.08-11.26-3-18.74-11.55-26.29C229.26,98.84,190.16,62.79,150.88,27c-2.12-1.94-3.47-2.39-5.82-.24-16,14.59-32,29-48.09,43.52-26,23.5-51.92,47.06-78,70.42a11.52,11.52,0,0,0-4.29,9.55c.14,39.35.09,78.7.09,118h0c0,38.73.08,77.46-.1,116.18,0,5.08,1.25,8.54,5.23,12.08q62.85,55.83,125.25,112.14c2.32,2.09,3.63,1.82,5.81-.19,11.52-10.61,23.2-21,34.82-31.53q45.21-40.86,90.49-81.65a11.08,11.08,0,0,0,4.13-9.21C280.26,310.85,280.05,235.63,280.58,160.42Z"/><path class="cls-3" d="M229,407.53c0,3.72-.06,6.43,0,9.14.06,2.2-1.19,2.75-3.07,2.74-3.36,0-6.71,0-10.07,0-18.16,0-36.32-.07-54.47,0-3.56,0-5.09-1-4.45-4.7a59,59,0,0,0,.36-7c3.21-.17,5.95-.17,8.64-.47,5.9-.66,7.65-3.39,5.72-8.89-2.75-7.83-5.51-15.66-8.5-23.4a4.6,4.6,0,0,0-3.37-2.44q-23.13-.24-46.26,0a5.07,5.07,0,0,0-3.66,2.62,87.16,87.16,0,0,0-4.26,12.26c-2.93,11.31,2.44,18.67,14.13,19.73,1.12.1,2.35-.11,3.32.32a3.49,3.49,0,0,1,1.85,2.19,31.23,31.23,0,0,1,.33,7,3.75,3.75,0,0,1-2,2.44c-.93.44-2.19.18-3.31.18-16.42,0-32.83-.07-49.25,0-3.28,0-5.07-.74-4.42-4.36a5.06,5.06,0,0,0,0-1.86c-.72-3.9.46-5.8,4.77-6.72,6.56-1.39,11.13-6.25,14.21-11.85a248.61,248.61,0,0,0,12.06-25.06c14.45-35.18,28.62-70.47,43-105.69.39-.94,1.63-1.55,2.5-2.27.16-.13.48-.09.73-.12,12-1.6,13-1,17.41,10.13,15.92,40.06,32,80.06,47.64,120.23C212.26,401.38,216.9,408.61,229,407.53Zm-72.21-49c-6.62-17.52-12.95-34.3-19.28-51.07h-.87l-19.89,51.08Z"/><path class="cls-3" d="M192.84,241.48c-10.7,0-21.4-.11-32.09.07-3.06,0-3.85-1-3.78-3.86.19-7.26.1-7.27,7.22-7.77,7.55-.54,9.62-3.7,7.06-10.8S166,205,163.57,197.8c-.81-2.39-2-3.31-4.58-3.3-15.05.09-30.1,0-45.14.15A5,5,0,0,0,110,197a91.48,91.48,0,0,0-4.51,13.73c-2.31,10.15,2.21,16.59,12.47,18.43,7.35,1.31,7.31,1.31,7.46,8.9,0,2.28-.6,3.44-3.13,3.43-17.78-.07-35.56-.05-53.35-.06-.49,0-1.4,0-1.42-.15a82.8,82.8,0,0,1-1.21-9.12,3.26,3.26,0,0,1,1.78-2.62c9.13-1.59,14.83-7.68,18.67-15.21C92,204,96.63,193.26,101.05,182.51c12.72-30.94,25.2-62,37.78-93,2.29-5.64,2.32-5.63,8.39-5.62,9.9,0,9.84,0,13.51,9.28,16.5,41.56,33.13,83.07,49.47,124.7,2.9,7.38,7.77,11.29,15.46,11.81,2.63.17,3.32,1.16,3.23,3.69-.29,8.07-.2,8.07-8.44,8.07ZM137.69,130l-1.07-.22c-6.56,16.79-13.12,33.58-19.79,50.63h39.91Z"/><path class="cls-4" d="M843,153.49c.08-11.25-3-18.73-11.55-26.29C791.63,91.92,752.53,55.86,713.25,20c-2.12-1.93-3.47-2.38-5.82-.23-16,14.59-32,29-48.09,43.52-26,23.49-51.91,47.05-78,70.42a11.49,11.49,0,0,0-4.29,9.55c.14,39.35.09,78.69.09,118h0c0,38.73.08,77.45-.1,116.18,0,5.08,1.25,8.54,5.23,12.07q62.85,55.83,125.25,112.15c2.32,2.09,3.63,1.81,5.81-.2,11.52-10.61,23.2-21,34.82-31.52q45.21-40.87,90.49-81.66a11.06,11.06,0,0,0,4.13-9.2C842.63,303.92,842.42,228.7,843,153.49Z"/><path class="cls-3" d="M770.51,332c-1,.23-1.54.38-2.13.51-8.32,1.8-8.4,1.75-10.8-6.14C753.52,313,748,300.52,737.41,290.9c-15.52-14-43.15-13.29-54.14,9.74a77.85,77.85,0,0,0-7.36,28.61c-.71,10.75-1,21.57-.72,32.33a96.34,96.34,0,0,0,6.34,32.65c9.52,24.32,33.59,27.82,51.73,19.28,14.2-6.69,21.17-19.31,25.66-33.58.85-2.69,1.38-5.48,2.15-8.63,3.62.86,7.13,1.55,10.51,2.61a3.19,3.19,0,0,1,1.42,2.74c-5.65,26.76-18,46.87-47,52.7-22.48,4.52-44.17,2.23-63-12.36-15.09-11.67-24-27.27-27.37-45.92-4.16-23.37-1.45-45.81,11.44-66.18,14.42-22.78,35.43-34.22,62.52-34.84,13.24-.31,25.38,2.61,36.27,10.19,2.13,1.48,3.44,1.07,5-.74,2.11-2.44,4.42-4.71,6.75-6.95a8,8,0,0,1,3-2c5.82-1.73,8.26.12,8.43,6.08q.72,24.93,1.49,49.84C770.55,328.19,770.51,329.91,770.51,332Z"/><path class="cls-3" d="M710.68,92.1c12.43-.24,23.94,2.6,34.16,9.79,2.43,1.71,4.31,1.88,6.35-.65a63.93,63.93,0,0,1,6-6.13,8.74,8.74,0,0,1,3-2.11c6.42-2.09,8.71-.39,8.89,6.23.47,16.85,1,33.71,1.52,50.57.14,5.13.1,5.13-5,5.32a9.15,9.15,0,0,0-2.23.11c-3,.86-4-.63-5-3.3-3.14-8.57-5.91-17.4-10.23-25.38C741.71,114.67,732.21,106.11,718,104A32.52,32.52,0,0,0,686.07,118c-6.61,10.18-9.28,21.63-10.16,33.43a313.94,313.94,0,0,0-.71,32.32,96.11,96.11,0,0,0,6.49,33c11.73,29.67,46.23,27.18,61.76,11.92,8.9-8.75,14.06-19.4,16.58-31.41.64-3.07,1.5-4.07,4.85-3.15,8.86,2.44,8.89,2.26,6.51,11.31-2.77,10.55-7,20.33-14.34,28.64-8.92,10.14-20.28,15.64-33.43,17.9-12.53,2.16-25,2.06-37.28-1.3-20.32-5.53-35.21-18.15-43.83-36.95-13.59-29.6-12.21-59.21,4.83-87.08C661.58,103.35,683.49,92.47,710.68,92.1Z"/></g></g></svg>