<svg xmlns="http://www.w3.org/2000/svg" viewBox="0 0 862.77 695.65"><defs><style>.cls-1{fill:#168141;}.cls-2{fill:#fcee21;}.cls-3{fill:#0055b8;}.cls-4{fill:#d13239;}.cls-5{fill:#fff;}</style></defs><title> logo aatcc</title><g id="Layer_2" data-name="Layer 2"><g id="Layer_1-2" data-name="Layer 1"><path class="cls-1" d="M28.66,662.17l-2.37,6q-2.53,6.95-1.18,11.08t7.61,4.82a22.89,22.89,0,0,1,.93,4.78q.26,2.65.25,5.79c-1.24-.11-2.93-.2-5.07-.26l-6.76-.16q-3.55-.09-6.51-.09c-2.88,0-5.75,0-8.63.09a64.06,64.06,0,0,0-6.93.42,41.94,41.94,0,0,1,.34-5.54,25.54,25.54,0,0,1,1.18-5,11,11,0,0,0,5-2.15,17.39,17.39,0,0,0,4.1-5.46q2-3.81,4.74-10.4L51.57,577a22.53,22.53,0,0,1,5-.85c1.44-.05,3.2-.08,5.28-.08l39.66,89.2q3.63,7.77,5.79,11.66a15.64,15.64,0,0,0,4.14,5.29,11.81,11.81,0,0,0,4.61,1.9,26.15,26.15,0,0,1,.93,4.86c.17,1.72.25,3.62.25,5.71a68.76,68.76,0,0,0-7.23-.42q-4.52-.09-9.09-.09H87.93c-2.31,0-4.74,0-7.27.09l-7.19.16c-2.25.06-4,.15-5.24.26a44.32,44.32,0,0,1,.34-6,26.72,26.72,0,0,1,1-4.61c4.28-.79,6.84-2.06,7.65-3.8s.19-4.91-1.9-9.47l-4.23-9.9q-10.48,0-21.81.34Q38.64,661.49,28.66,662.17ZM67,651.35l-9.64-22.49a138.52,138.52,0,0,1-5.83-14.71q-1.27-3.55-2.37-7.27c-.73,2.59-1.52,5.16-2.37,7.69q-2.28,7-5.15,14.29l-8.8,22.49Z"/><path class="cls-1" d="M221.26,646.87q0,14.88-2.11,24A31.23,31.23,0,0,1,211,686.18a33,33,0,0,1-12.6,7.15,55.78,55.78,0,0,1-16.82,2.32q-16.67,0-26.34-4.56a27,27,0,0,1-13.78-14q-4.11-9.44-4.1-23.63V604.76a50.26,50.26,0,0,0-.85-10.82c-.56-2.36-1.62-4-3.17-4.81a22.34,22.34,0,0,0-6.89-2,37.38,37.38,0,0,1-.76-5c-.17-1.86-.25-3.72-.25-5.58q3.47.16,9.51.38t12.3.21h7.1q4,0,8.12-.09t7.61-.21c2.31-.08,4.17-.18,5.58-.29,0,2-.06,3.83-.17,5.58a23.54,23.54,0,0,1-.85,5,19.34,19.34,0,0,0-7.23,1.9,7.35,7.35,0,0,0-3.38,4.94,48.48,48.48,0,0,0-.89,10.82v45.92a59.37,59.37,0,0,0,2.37,17.75,22,22,0,0,0,7.74,11.5q5.37,4,14.16,4a27.3,27.3,0,0,0,8.75-1.56,16.85,16.85,0,0,0,7.74-5.37,19.48,19.48,0,0,0,3.5-6.09,41.47,41.47,0,0,0,2-9.47,135,135,0,0,0,.68-14.88V609.84a65.27,65.27,0,0,0-1-13.19q-1-4.65-3.51-6.72a14.81,14.81,0,0,0-7.22-2.83,49.36,49.36,0,0,1-.68-5.5c-.11-1.75-.17-3.44-.17-5.07,1.52.11,3.31.21,5.37.29s4.21.16,6.47.21,4.25.09,6,.09q4.49,0,9.34-.21t8.16-.38c0,1.75-.06,3.46-.17,5.15a28.26,28.26,0,0,1-.93,5.42,11.51,11.51,0,0,0-6.55,2.53q-2.24,2-3.09,6.6a74,74,0,0,0-.84,12.68Z"/><path class="cls-1" d="M286.19,695.65a74.12,74.12,0,0,1-20.71-2.74A95.1,95.1,0,0,1,247,685.34a101.24,101.24,0,0,0,1.74-14q.38-7.09.38-13a39,39,0,0,1,7.61-1.35c2.76-.22,5.41-.34,8-.34a62.38,62.38,0,0,0,2.83,16,15.89,15.89,0,0,0,6.85,8.92q4.68,2.75,12.47,2.75,10.23,0,14.71-4.4a14.05,14.05,0,0,0,.34-20.25,39,39,0,0,0-10.53-7.18Q285,649.32,277.82,646a80.91,80.91,0,0,1-13.7-8,37.39,37.39,0,0,1-10.56-11.62q-4.06-6.93-4.06-17.33,0-11.42,5.11-18.86a30.68,30.68,0,0,1,13.83-11.07,50.51,50.51,0,0,1,19.61-3.64,76.5,76.5,0,0,1,12.68,1.06,82.35,82.35,0,0,1,11.42,2.7,31,31,0,0,1,8.28,3.85q0,6.25.26,13.28a85.27,85.27,0,0,0,1,11.32,21.34,21.34,0,0,1-7.23,2.16,56.4,56.4,0,0,1-7.82.63q-1.61-9.72-4.27-14.92t-6.59-7.18a19.85,19.85,0,0,0-9.09-2q-7.11,0-11.59,3.38t-4.48,10a14.7,14.7,0,0,0,4.23,10.73,39.38,39.38,0,0,0,10.91,7.61q6.68,3.3,14.2,6.77a95,95,0,0,1,14.16,8A38.62,38.62,0,0,1,325,644.25q4.27,6.76,4.27,16.82a33.47,33.47,0,0,1-4.78,17.76,32.09,32.09,0,0,1-14.29,12.34Q300.73,695.66,286.19,695.65Z"/><path class="cls-1" d="M405.32,587.43v79.31a37.46,37.46,0,0,0,1.14,10.48,7.67,7.67,0,0,0,4.44,5.12,29.75,29.75,0,0,0,9.63,1.73,16.87,16.87,0,0,1,1.1,4.69,50.15,50.15,0,0,1,.34,5.88q-5.24-.35-12.68-.42t-15.9-.09q-5.58,0-11.62.09l-11.24.16q-5.2.09-8.84.26a40.12,40.12,0,0,1,.42-5.71,26.8,26.8,0,0,1,1.1-4.86,33,33,0,0,0,10-1.73,8.14,8.14,0,0,0,4.86-5.12,33,33,0,0,0,1.31-10.48V587.43h-4.31q-7.28,0-11.54,2.62a16.84,16.84,0,0,0-6.51,7.4,55.79,55.79,0,0,0-3.76,11.63c-2.32,0-4.68-.11-7.11-.34a16.86,16.86,0,0,1-6.25-1.69,135.37,135.37,0,0,0,2.66-15.52,131.59,131.59,0,0,0,1-15l13.19.38q7.11.21,15.81.21h20.38q10.73,0,19.57-.09t16.19-.21q7.35-.12,13.19-.29,0,6.76.72,14.58t1.9,15.94a32.18,32.18,0,0,1-6,1.6,35.29,35.29,0,0,1-7.53.43q-1.19-10.91-5.62-16.28t-13.91-5.37Z"/><rect class="cls-2" x="573.71" y="576.8" width="288.85" height="57.39"/><path d="M585.29,621.25l3.82-4.48a17.9,17.9,0,0,0,12.13,5c5.37,0,8.36-2.47,8.36-5.89,0-4.15-3.1-5.3-7.31-7.08l-6-2.62c-4.33-1.71-9.09-4.85-9.09-11.1,0-6.62,6-11.62,14.34-11.62a19.06,19.06,0,0,1,13.33,5.32L611.52,593a15,15,0,0,0-10.25-3.79c-4.47,0-7.47,2.07-7.47,5.54,0,3.69,3.66,5,7.4,6.48l5.76,2.54c5.32,2.07,9.3,5.18,9.3,11.38,0,6.81-5.75,12.37-15.38,12.37A22.28,22.28,0,0,1,585.29,621.25Z"/><path d="M636.31,589.75H622.6v-5.48h33.92v5.48H642.81v37h-6.5Z"/><path d="M663.87,610.59V584.27h6.56v26.67c0,7.79,3.32,10.86,8.1,10.86s8.22-3.07,8.22-10.86V584.27H693v26.32c0,11.87-5.7,16.9-14.5,16.9S663.87,622.46,663.87,610.59Z"/><path d="M703.26,584.27h10.8c12.63,0,19.86,7.28,19.86,21s-7.23,21.41-19.53,21.41H703.26Zm10.37,37.14c8.86,0,13.57-5.52,13.57-16.11s-4.71-15.73-13.57-15.73h-3.86v31.84Z"/><path d="M743.81,584.27h26.75v5.48H750.32v12h17.12v5.49H750.32v14h20.89v5.48h-27.4Z"/><path d="M780.73,584.27h6.95l12.39,25.23,4,8.93h.16c-.26-4.27-.87-9.36-.87-14v-20.2h6.2v42.44h-7l-12.39-25.24-4-8.92h-.15c.25,4.43.87,9.26.87,13.81v20.35h-6.2Z"/><path d="M830.76,589.75h-13.7v-5.48H851v5.48h-13.7v37h-6.51Z"/><path class="cls-3" d="M573.74,669.72c0-15,8.92-24,21-24a17.9,17.9,0,0,1,12.94,5.69l-4,4.43a12,12,0,0,0-9-3.93c-8.22,0-13.74,6.7-13.74,17.6,0,11.06,5.52,17.85,13.84,17.85,4,0,7.1-1.77,9.82-4.8l4,4.29a18.15,18.15,0,0,1-14.5,6.7C582.77,693.57,573.74,684.91,573.74,669.72Z"/><path class="cls-3" d="M616.93,646.58h7.13v18.89h17.43V646.58h7.13v46.15h-7.13V671.68H624.06v21.05h-7.13Z"/><path class="cls-3" d="M670.93,646.58h8.24l15.24,46.15h-7.55l-7.43-25.13c-1.5-5-3-10.15-4.35-15.38h-.28c-1.39,5.23-2.81,10.38-4.31,15.38l-7.55,25.13h-7.25Zm-6.68,27.28h21.41v5.65H664.25Z"/><path class="cls-3" d="M702.88,646.58h14.55c10.16,0,17.35,3.5,17.35,13.91,0,10-7.3,14.63-17.35,14.63H710v17.61h-7.07Zm13.88,22.85c7.42,0,11-2.85,11-8.94s-3.69-8.22-11-8.22H710v17.16Z"/><path class="cls-3" d="M756.07,652.55h-14.9v-6H778v6h-14.9v40.18h-7.07Z"/><path class="cls-3" d="M788.38,646.58h29.08v6h-22v13.09h18.61v6H795.46v15.16h22.71v6H788.38Z"/><path class="cls-3" d="M829.46,646.58h14.93c9.46,0,16.6,3.39,16.6,13.37,0,9.57-7.14,14-16.6,14h-7.8v18.74h-7.13Zm14.08,21.72c6.74,0,10.43-2.8,10.43-8.35s-3.69-7.68-10.43-7.68h-6.95v16Zm4.78-.25,14.23,24.68h-8L843,672.08Z"/><path d="M862.77,135.55V394.72a20.66,20.66,0,0,0-3,1.9c-4.36,3.89-8.64,7.86-13,11.79Q782.06,467.17,717.41,526a15.21,15.21,0,0,1-11.22,4.35q-272.62-.15-545.24,0a16.36,16.36,0,0,1-12.2-4.64c-20.19-18.61-40.75-36.82-61.1-55.25C60.57,446,33.6,421.31,6.47,396.84a9.65,9.65,0,0,1-3.65-7.93Q3,270.7,2.89,152.46c0-4.34-.2-8.7.1-13a7.88,7.88,0,0,1,2.13-4.69c4.15-4.1,8.57-7.92,12.9-11.84q66-59.81,132-119.65A14.69,14.69,0,0,0,152.17,0H713.49c2.27,2.26,4.46,4.6,6.82,6.75Q790.14,70.38,860,134A15.3,15.3,0,0,0,862.77,135.55ZM300.07,265.72h0c0,38.73.08,77.45-.1,116.18,0,5.08,1.26,8.54,5.24,12.08Q368,449.79,430.43,506.12c2.33,2.09,3.63,1.82,5.82-.2,11.51-10.61,23.19-21,34.81-31.52q45.21-40.86,90.49-81.66a11,11,0,0,0,4.13-9.2c-.1-75.22-.31-150.43.22-225.65.08-11.25-3-18.73-11.54-26.29C514.58,96.32,475.48,60.27,436.2,24.42c-2.12-1.93-3.47-2.38-5.82-.23-15.95,14.59-32.05,29-48.08,43.52-26,23.49-51.92,47.06-78,70.42a11.47,11.47,0,0,0-4.28,9.55C300.12,187,300.07,226.37,300.07,265.72ZM697.38,16.4H449.65c2.89,2.55,5,4.39,7.11,6.29Q513.7,74.44,570.59,126.25c2.07,1.88,3.39,2.09,5.54.11,16-14.68,32.17-29.24,48.27-43.84Zm-527.76,0c.14.72.13.88.2.95q60,54.39,120.06,108.83c2.39,2.17,3.75,1.65,5.83-.25Q341,84.63,386.49,43.51c9.79-8.88,19.63-17.7,30.13-27.16Zm528,497.52c-1.85-1.59-3-2.56-4.19-3.59Q635.28,457.6,577.13,404.92c-3.77-3.42-3.69-3.45-7.37-.11q-57.21,52.07-114.45,104.1c-1.59,1.45-3.21,2.87-5.54,5Zm-281,0c-1.85-1.63-3.11-2.72-4.33-3.83q-57.9-52.39-115.81-104.78c-4.17-3.77-3.12-4.5-8.17.09l-117.85,107a12.61,12.61,0,0,0-1.16,1.56ZM231.84,407.53c-12.12,1.08-16.76-6.15-20.46-15.66-15.65-40.17-31.72-80.17-47.64-120.23-4.44-11.16-5.42-11.73-17.42-10.13-.24,0-.56,0-.72.12-.88.72-2.12,1.33-2.5,2.27-14.35,35.22-28.51,70.51-43,105.69a248.61,248.61,0,0,1-12.06,25.06c-3.08,5.6-7.65,10.46-14.21,11.85-4.31.92-5.5,2.82-4.77,6.72a5.06,5.06,0,0,1,0,1.86c-.65,3.62,1.14,4.38,4.42,4.36,16.41-.11,32.83,0,49.25,0,1.12,0,2.38.26,3.31-.18a3.75,3.75,0,0,0,2-2.44,31.23,31.23,0,0,0-.33-7,3.47,3.47,0,0,0-1.86-2.19c-1-.43-2.19-.22-3.31-.32-11.7-1.06-17.06-8.42-14.13-19.73a85.91,85.91,0,0,1,4.26-12.26,5.07,5.07,0,0,1,3.66-2.62q23.13-.28,46.26,0A4.6,4.6,0,0,1,166,375c3,7.74,5.75,15.57,8.5,23.4,1.93,5.5.18,8.23-5.72,8.89-2.7.3-5.43.3-8.65.47a55,55,0,0,1-.36,7c-.63,3.74.9,4.73,4.45,4.7,18.16-.11,36.32,0,54.48,0,3.35,0,6.71,0,10.07,0,1.88,0,3.13-.54,3.07-2.74C231.79,414,231.84,411.25,231.84,407.53Zm-36.18-166h27.61c8.24,0,8.15,0,8.44-8.07.09-2.53-.6-3.52-3.23-3.69-7.7-.52-12.56-4.43-15.46-11.81-16.34-41.63-33-83.14-49.47-124.7-3.67-9.25-3.61-9.27-13.51-9.28-6.08,0-6.1,0-8.39,5.62-12.58,31-25.06,62-37.78,93-4.42,10.75-9,21.48-14.29,31.83C85.74,221.87,80,228,70.91,229.55a3.26,3.26,0,0,0-1.78,2.62,82.8,82.8,0,0,0,1.21,9.12c0,.13.93.15,1.42.15,17.78,0,35.57,0,53.35.06,2.53,0,3.17-1.15,3.13-3.43-.16-7.59-.11-7.59-7.46-8.9-10.26-1.84-14.78-8.28-12.47-18.43A91.48,91.48,0,0,1,112.82,197a5,5,0,0,1,3.85-2.36c15-.17,30.09-.06,45.14-.15,2.53,0,3.76.91,4.58,3.3,2.43,7.15,5.11,14.21,7.68,21.32s.49,10.26-7.06,10.8c-7.12.5-7,.51-7.22,7.77-.07,2.82.72,3.91,3.78,3.86C174.26,241.37,185,241.48,195.66,241.48ZM773.33,332c0-2.06,0-3.78,0-5.51q-.74-24.91-1.49-49.84c-.17-6-2.61-7.81-8.43-6.08a8,8,0,0,0-3,2c-2.32,2.24-4.63,4.51-6.75,6.95-1.57,1.81-2.89,2.22-5,.74-10.88-7.58-23-10.5-36.26-10.19-27.09.62-48.1,12.06-62.52,34.84-12.89,20.37-15.6,42.81-11.44,66.18,3.32,18.65,12.28,34.25,27.37,45.92,18.86,14.59,40.55,16.88,63,12.36,29-5.83,41.39-25.94,47-52.7a3.19,3.19,0,0,0-1.42-2.74c-3.39-1.06-6.89-1.75-10.51-2.61-.77,3.15-1.3,5.94-2.15,8.63-4.49,14.27-11.46,26.89-25.66,33.58-18.14,8.54-42.21,5-51.73-19.28A96.1,96.1,0,0,1,678,361.58c-.3-10.76,0-21.58.72-32.33a77.85,77.85,0,0,1,7.36-28.61c11-23,38.61-23.79,54.14-9.74,10.61,9.62,16.1,22.12,20.16,35.44,2.41,7.89,2.49,7.94,10.8,6.14C771.79,332.35,772.38,332.2,773.33,332ZM713.5,92.1c-27.2.37-49.1,11.25-63.34,34.54-17,27.87-18.42,57.48-4.84,87.08,8.63,18.8,23.52,31.42,43.83,36.95,12.31,3.36,24.76,3.46,37.29,1.3,13.15-2.26,24.51-7.76,33.43-17.9,7.3-8.31,11.56-18.09,14.34-28.64,2.38-9.05,2.35-8.87-6.51-11.31-3.35-.92-4.21.08-4.85,3.15-2.53,12-7.68,22.66-16.58,31.41-15.53,15.26-50,17.75-61.77-11.92a96.59,96.59,0,0,1-6.49-33,313.94,313.94,0,0,1,.72-32.32c.88-11.8,3.55-23.25,10.15-33.43A32.54,32.54,0,0,1,720.82,104c14.21,2.14,23.71,10.7,30.13,22.58,4.32,8,7.09,16.81,10.23,25.38,1,2.67,1.94,4.16,5,3.3a9.15,9.15,0,0,1,2.23-.11c5.11-.19,5.15-.19,5-5.32-.49-16.86-1-33.72-1.51-50.57-.18-6.62-2.47-8.32-8.89-6.23a8.74,8.74,0,0,0-3,2.11,65.26,65.26,0,0,0-6,6.13c-2,2.53-3.91,2.36-6.34.65C737.44,94.7,725.93,91.86,713.5,92.1Z"/><path class="cls-2" d="M300.07,265.72c0-39.35.05-78.69-.08-118a11.47,11.47,0,0,1,4.28-9.55c26.11-23.36,52-46.93,78-70.42,16-14.5,32.13-28.93,48.08-43.52,2.35-2.15,3.7-1.7,5.82.23,39.28,35.85,78.38,71.9,118.16,107.18,8.52,7.56,11.62,15,11.54,26.29-.53,75.22-.32,150.43-.22,225.65a11,11,0,0,1-4.13,9.2q-45.39,40.68-90.49,81.66c-11.62,10.49-23.3,20.91-34.81,31.52-2.19,2-3.49,2.29-5.82.2Q367.92,449.92,305.19,394c-4-3.54-5.26-7-5.24-12.08.18-38.73.1-77.45.1-116.18ZM459,269.42q0-40,0-80a73.78,73.78,0,0,1,.16-7.44c.46-4.5,2.24-6.68,6.72-7a39.84,39.84,0,0,1,11.42.79c12.53,2.78,20.74,11.28,27.19,21.68,8.1,13.07,12.33,27.54,14.6,42.62.33,2.2,1.18,3,3.3,3,3.23-.06,6.47,0,9.7,0,2.27,0,3-.81,2.7-3.18-.55-4.93-.76-9.89-1-14.85q-1.57-31.22-3.06-62.43c-.11-2.37-.76-3.53-3.51-3.52q-94,.08-188-.06c-2.95,0-3.86,1-4,3.8-1.27,24.64-2.68,49.28-4,73.93-.34,6.28-.27,6.28,6.28,6.26,8.2,0,8.06-.05,9.67-8.17,3.3-16.59,8.67-32.35,19.56-45.69,7.58-9.28,17.05-15.07,29.53-14.74,7.13.2,9.67,2.61,9.67,9.7q.06,83.22,0,166.42c0,10.4-3.79,14-14.17,14.33-5.1.14-10.2.29-15.3.3-2.54,0-3.56,1-3.42,3.59a60.48,60.48,0,0,1-.07,8.93c-.35,3.55.84,4.65,4.5,4.64,29.6-.14,59.2-.07,88.8,0,7.47,0,14.93-.06,22.39,0,2.77,0,4.17-.72,4-3.79a78.17,78.17,0,0,1,.07-9.68c.16-2.8-.94-3.59-3.69-3.63a177,177,0,0,1-20.09-1c-8.52-1.09-9.86-3.06-9.86-11.76Q459,310.93,459,269.42Z"/><path d="M459,269.42q0,41.5,0,83c0,8.7,1.34,10.67,9.86,11.76a177,177,0,0,0,20.09,1c2.75,0,3.85.83,3.69,3.63a78.17,78.17,0,0,0-.07,9.68c.2,3.07-1.2,3.83-4,3.79-7.46-.11-14.92,0-22.39,0-29.6,0-59.2-.09-88.8,0-3.66,0-4.85-1.09-4.5-4.64a60.48,60.48,0,0,0,.07-8.93c-.14-2.57.88-3.58,3.42-3.59,5.1,0,10.2-.16,15.3-.3,10.38-.28,14.16-3.93,14.17-14.33q.09-83.21,0-166.42c0-7.09-2.54-9.5-9.67-9.7-12.48-.33-21.95,5.46-29.53,14.74-10.89,13.34-16.26,29.1-19.56,45.69-1.61,8.12-1.47,8.15-9.67,8.17-6.55,0-6.62,0-6.28-6.26,1.32-24.65,2.73-49.29,4-73.93.14-2.84,1.05-3.8,4-3.8q94,.15,188.05.06c2.75,0,3.4,1.15,3.51,3.52q1.49,31.22,3.06,62.43c.25,5,.46,9.92,1,14.85.26,2.37-.43,3.22-2.7,3.18-3.23,0-6.47-.08-9.7,0-2.12,0-3-.79-3.3-3-2.27-15.08-6.5-29.55-14.6-42.62-6.45-10.4-14.66-18.9-27.19-21.68a39.84,39.84,0,0,0-11.42-.79c-4.48.35-6.26,2.53-6.72,7a73.78,73.78,0,0,0-.16,7.44Q459,229.4,459,269.42Z"/><path d="M159.63,358.53h-40l19.89-51.08h.86C146.69,324.23,153,341,159.63,358.53Z"/><path d="M140.51,130l19.05,50.41H119.65l19.78-50.63Z"/><path class="cls-4" d="M283.4,160.42c.07-11.26-3-18.74-11.55-26.29C232.07,98.84,193,62.79,153.69,27c-2.11-1.94-3.46-2.39-5.81-.24-16,14.59-32,29-48.09,43.52-26,23.5-51.92,47.06-78,70.42a11.49,11.49,0,0,0-4.29,9.55c.14,39.35.08,78.7.08,118h0c0,38.73.08,77.46-.1,116.18,0,5.08,1.25,8.54,5.23,12.08q62.85,55.83,125.25,112.14c2.32,2.09,3.63,1.82,5.81-.19,11.51-10.61,23.2-21,34.82-31.53q45.21-40.86,90.49-81.65a11.08,11.08,0,0,0,4.13-9.21C283.08,310.85,282.87,235.63,283.4,160.42Z"/><path class="cls-5" d="M231.84,407.53c0,3.72-.05,6.43,0,9.14.06,2.2-1.19,2.75-3.07,2.74-3.36,0-6.72,0-10.07,0-18.16,0-36.32-.07-54.48,0-3.55,0-5.08-1-4.45-4.7a55,55,0,0,0,.36-7c3.22-.17,5.95-.17,8.65-.47,5.9-.66,7.65-3.39,5.72-8.89-2.75-7.83-5.51-15.66-8.5-23.4a4.6,4.6,0,0,0-3.37-2.44q-23.13-.24-46.26,0a5.07,5.07,0,0,0-3.66,2.62,85.91,85.91,0,0,0-4.26,12.26c-2.93,11.31,2.43,18.67,14.13,19.73,1.12.1,2.35-.11,3.31.32a3.47,3.47,0,0,1,1.86,2.19,31.23,31.23,0,0,1,.33,7,3.75,3.75,0,0,1-2,2.44c-.93.44-2.19.18-3.31.18-16.42,0-32.84-.07-49.25,0-3.28,0-5.07-.74-4.42-4.36a5.06,5.06,0,0,0,0-1.86c-.73-3.9.46-5.8,4.77-6.72,6.56-1.39,11.13-6.25,14.21-11.85a248.61,248.61,0,0,0,12.06-25.06c14.45-35.18,28.61-70.47,43-105.69.38-.94,1.62-1.55,2.5-2.27.16-.13.48-.09.72-.12,12-1.6,13-1,17.42,10.13,15.92,40.06,32,80.06,47.64,120.23C215.08,401.38,219.72,408.61,231.84,407.53Zm-72.21-49c-6.61-17.52-12.94-34.3-19.28-51.07h-.86L119.6,358.53Z"/><path class="cls-5" d="M195.66,241.48c-10.7,0-21.4-.11-32.09.07-3.06,0-3.85-1-3.78-3.86.19-7.26.1-7.27,7.22-7.77,7.55-.54,9.62-3.7,7.06-10.8s-5.25-14.17-7.68-21.32c-.82-2.39-2-3.31-4.58-3.3-15.05.09-30.1,0-45.14.15a5,5,0,0,0-3.85,2.36,91.48,91.48,0,0,0-4.51,13.73c-2.31,10.15,2.21,16.59,12.47,18.43,7.35,1.31,7.3,1.31,7.46,8.9,0,2.28-.6,3.44-3.13,3.43-17.78-.07-35.57-.05-53.35-.06-.49,0-1.4,0-1.42-.15a82.8,82.8,0,0,1-1.21-9.12,3.26,3.26,0,0,1,1.78-2.62C80,228,85.74,221.87,89.58,214.34c5.27-10.35,9.87-21.08,14.29-31.83,12.72-30.94,25.2-62,37.78-93,2.29-5.64,2.31-5.63,8.39-5.62,9.9,0,9.84,0,13.51,9.28,16.5,41.56,33.13,83.07,49.47,124.7,2.9,7.38,7.76,11.29,15.46,11.81,2.63.17,3.32,1.16,3.23,3.69-.29,8.07-.2,8.07-8.44,8.07ZM140.51,130l-1.08-.22-19.78,50.63h39.91Z"/><path class="cls-3" d="M845.77,153.49c.07-11.25-3-18.73-11.55-26.29C794.44,91.92,755.35,55.86,716.06,20c-2.11-1.93-3.46-2.38-5.81-.23-16,14.59-32,29-48.09,43.52-26,23.49-51.92,47.05-78,70.42a11.46,11.46,0,0,0-4.29,9.55c.14,39.35.08,78.69.08,118h0c0,38.73.08,77.45-.1,116.18,0,5.08,1.25,8.54,5.23,12.07Q647.9,445.4,710.3,501.72c2.32,2.09,3.63,1.81,5.81-.2,11.51-10.61,23.2-21,34.82-31.52q45.21-40.87,90.49-81.66a11.06,11.06,0,0,0,4.13-9.2C845.45,303.92,845.24,228.7,845.77,153.49Z"/><path class="cls-5" d="M773.33,332c-1,.23-1.54.38-2.14.51-8.31,1.8-8.39,1.75-10.8-6.14-4.06-13.32-9.55-25.82-20.16-35.44-15.53-14-43.15-13.29-54.14,9.74a77.85,77.85,0,0,0-7.36,28.61c-.71,10.75-1,21.57-.72,32.33a96.1,96.1,0,0,0,6.34,32.65c9.52,24.32,33.59,27.82,51.73,19.28,14.2-6.69,21.17-19.31,25.66-33.58.85-2.69,1.38-5.48,2.15-8.63,3.62.86,7.12,1.55,10.51,2.61a3.19,3.19,0,0,1,1.42,2.74c-5.65,26.76-18,46.87-47,52.7-22.48,4.52-44.17,2.23-63-12.36-15.09-11.67-24-27.27-27.37-45.92-4.16-23.37-1.45-45.81,11.44-66.18,14.42-22.78,35.43-34.22,62.52-34.84,13.24-.31,25.38,2.61,36.26,10.19,2.13,1.48,3.45,1.07,5-.74,2.12-2.44,4.43-4.71,6.75-6.95a8,8,0,0,1,3-2c5.82-1.73,8.26.12,8.43,6.08q.72,24.93,1.49,49.84C773.37,328.19,773.33,329.91,773.33,332Z"/><path class="cls-5" d="M713.5,92.1c12.43-.24,23.94,2.6,34.16,9.79,2.43,1.71,4.31,1.88,6.34-.65a65.26,65.26,0,0,1,6-6.13A8.74,8.74,0,0,1,763,93c6.42-2.09,8.71-.39,8.89,6.23.47,16.85,1,33.71,1.51,50.57.15,5.13.11,5.13-5,5.32a9.15,9.15,0,0,0-2.23.11c-3,.86-4-.63-5-3.3-3.14-8.57-5.91-17.4-10.23-25.38C744.53,114.67,735,106.11,720.82,104A32.54,32.54,0,0,0,688.88,118c-6.6,10.18-9.27,21.63-10.15,33.43a313.94,313.94,0,0,0-.72,32.32,96.59,96.59,0,0,0,6.49,33c11.73,29.67,46.24,27.18,61.77,11.92,8.9-8.75,14.05-19.4,16.58-31.41.64-3.07,1.5-4.07,4.85-3.15,8.86,2.44,8.89,2.26,6.51,11.31-2.78,10.55-7,20.33-14.34,28.64-8.92,10.14-20.28,15.64-33.43,17.9-12.53,2.16-25,2.06-37.29-1.3-20.31-5.53-35.2-18.15-43.83-36.95-13.58-29.6-12.2-59.21,4.84-87.08C664.4,103.35,686.3,92.47,713.5,92.1Z"/><rect class="cls-4" x="479.04" y="575.49" width="5.7" height="119.68"/><rect class="cls-3" x="527.8" y="575.49" width="5.7" height="119.68"/><rect class="cls-2" x="503.42" y="575.49" width="5.7" height="119.68"/></g></g></svg>